<svg xmlns="http://www.w3.org/2000/svg" viewBox="0 0 340.96 288.28"><defs><style>.cls-1{fill:#ff851b;}.cls-2{fill:none;}</style></defs><g id="Layer_2" data-name="Layer 2"><g id="Layer_1_copy_2" data-name="Layer 1 copy 2"><path class="cls-1" d="M304.87,169.83a47.75,47.75,0,0,0-12.71-1.77H292c-1.58,0-3.13.1-4.67.25a48,48,0,0,0-12.85,3.11,48.65,48.65,0,0,0-29,59.39c0,.13.1.26.14.4A48.77,48.77,0,0,0,341,216.61,49.13,49.13,0,0,0,304.87,169.83Zm13.57,35.74a17.3,17.3,0,0,1-2.09,2.36q-6.59,6.62-13.2,13.21t-13.38,13.38a15,15,0,0,1-3,2.36c-2.7,1.6-5.25,1.6-7.55,0a12.76,12.76,0,0,1-3.69-4.23l-1.07-1.86-.12-.21c-.06-.09-.11-.19-.17-.29q-3.75-6.47-7.48-12.95c-2.82-4.91-2.39-8.63,1.23-10.68s6.89-.54,9.81,4.53q2.91,5.06,5.85,10.1a6.24,6.24,0,0,0,.82.79l.57-.56,7.23-7.24,4.48-4.48,8.28-8.29,2.07-2.06a21.63,21.63,0,0,1,2.8-2.54,6.22,6.22,0,0,1,8.65,8.66Z"/><path class="cls-2" d="M236.4,165.08c-.71-.77-1.5-2.35-2.54-2.55s-2.55.77-3.54,1.6c-.6.5-.63,1.7-.89,2.59a86.48,86.48,0,0,1-24.9,39.7,88.45,88.45,0,0,1-25.26,16.08c-2.92,1.25-3.78,4.08-1.57,5.37a5.74,5.74,0,0,0,4.53,0c25.33-11,42.63-29.66,52-55.65C235,170.09,235.55,167.89,236.4,165.08Z"/><path class="cls-2" d="M61.4,161.89c-.29-1.23-1.68-2.19-2.2-2.83-3.17,0-4.38,1.77-3.74,4.45A93,93,0,0,0,77.8,205.42c1.36,1.47,3,2.06,4.62.6s1.31-3.29-.14-4.89A88.12,88.12,0,0,1,61.4,161.89Z"/><path class="cls-2" d="M145.16,229a85.29,85.29,0,0,1-35.69-8c-1.91-.88-3.81-.93-4.79,1.18s.3,3.64,2.36,4.57a93.91,93.91,0,0,0,34.39,8.49c1.14,0,2.28,0,3.41,0,2.16.09,4.15-.3,4.27-2.89S147.33,229,145.16,229Z"/><path class="cls-1" d="M233.5,234.62A56.17,56.17,0,0,1,231,228c-.05-.16-.11-.31-.16-.47a56.88,56.88,0,0,1,48.76-72.74,54.23,54.23,0,0,1,5.43-.29h.2A53,53,0,0,1,292,155a91.91,91.91,0,0,0,0-9.54h-79c-1.77,35.09-30.69,62-63.36,63.46-16.13.73-30.79-3.52-43.64-13.26-16.52-12.53-25.28-29.41-26.87-50.14H0c0,3,0,5.74,0,8.52a7.4,7.4,0,0,0,3.87,7,23.76,23.76,0,0,0,6,2.45q12.36,3,24.81,5.64c2.52.54,3.71,1.83,4.63,4.27,2.8,7.44,5.82,14.8,9.14,22,1.2,2.61,1.21,4.48-.35,6.83C44.26,208,40.62,213.88,37,219.78a63.69,63.69,0,0,0-4.09,7.29c-1.78,4-1.14,7.54,2.17,10.71,5.38,5.15,10.63,10.46,15.83,15.81a8.23,8.23,0,0,0,9.1,2.17,29.45,29.45,0,0,0,6.1-3c7-4.29,13.79-8.8,20.83-12.95a6.66,6.66,0,0,1,5.08-.28c7.89,3,15.62,6.5,23.49,9.61,2,.77,3.09,1.77,3.5,3.84.66,3.34,1.49,6.66,2.26,10,1.33,5.74,2.47,11.54,4,17.21,1.7,6.11,4.58,8.08,10.8,8.08h18.64c8.24,0,10.73-1.9,12.68-10.08,1.9-7.94,3.75-15.9,5.41-23.9.62-3,2-4.44,4.93-5.51,7.37-2.68,14.59-5.78,21.73-9,2.35-1.06,4.11-1.24,6.3.19,6.94,4.51,14,8.9,21,13.24a24.35,24.35,0,0,0,5.58,2.64c3,.91,6,.65,8.36-1.75,1.19-1.2,2.4-2.38,3.6-3.56a57.86,57.86,0,0,1-6.66-8.29A57.27,57.27,0,0,1,233.5,234.62ZM82.42,206c-1.61,1.46-3.26.87-4.62-.6a93,93,0,0,1-22.34-41.91c-.64-2.68.57-4.42,3.74-4.45.52.64,1.91,1.6,2.2,2.83a88.12,88.12,0,0,0,20.88,39.24C83.73,202.73,84.14,204.47,82.42,206Zm62.42,29.16c-1.13,0-2.27,0-3.41,0A93.91,93.91,0,0,1,107,226.68c-2.06-.93-3.41-2.31-2.36-4.57s2.88-2.06,4.79-1.18a85.29,85.29,0,0,0,35.69,8c2.17,0,4.07.75,4,3.31S147,235.27,144.84,235.18Zm37.39-7.3a5.74,5.74,0,0,1-4.53,0c-2.21-1.29-1.35-4.12,1.57-5.37a88.45,88.45,0,0,0,25.26-16.08,86.48,86.48,0,0,0,24.9-39.7c.26-.89.29-2.09.89-2.59,1-.83,2.47-1.8,3.54-1.6s1.83,1.78,2.54,2.55c-.85,2.81-1.42,5-2.19,7.15C224.86,198.22,207.56,216.84,182.23,227.88Z"/><path class="cls-1" d="M206.43,145.51c-.71,29.24-26.88,59.35-64,57.15-36.4-2.16-56.83-33.78-56.49-57.15Z"/><path class="cls-1" d="M292.05,132.25H181.94c.65-25.14,22.34-51.83,54.8-52A55.14,55.14,0,0,1,292.05,132.25Z"/><path class="cls-1" d="M.21,132.26c.93-29,26.68-52.75,56.56-51.94,32.61.88,53,27.93,53.49,51.94Z"/><path class="cls-1" d="M146.35,65.51A32.76,32.76,0,1,1,179,32.63,32.82,32.82,0,0,1,146.35,65.51Z"/><path class="cls-1" d="M175.22,132.3H116.73a62.48,62.48,0,0,0-12-33.31A52,52,0,0,1,130.65,82.5c20.81-5.6,39-.79,54.71,14,1.71,1.63,2,2.76.56,4.88a57.73,57.73,0,0,0-10.11,28c-.05.62-.14,1.23-.25,1.85A8.15,8.15,0,0,1,175.22,132.3Z"/><path class="cls-1" d="M55.57,72.24A31.44,31.44,0,1,1,87,40.81,31.33,31.33,0,0,1,55.57,72.24Z"/><path class="cls-1" d="M237.06,71.72A30.89,30.89,0,1,1,267.92,40.6,31,31,0,0,1,237.06,71.72Z"/></g></g></svg>