<svg version="1.1" xmlns="http://www.w3.org/2000/svg" width="200px" height="200px" transform="rotate(0) scale(1, 1)">
<path d="M0 0 C1.39312408 -0.00744736 1.39312408 -0.00744736 2.81439209 -0.01504517 C5.89075457 -0.02966567 8.9670655 -0.03646832 12.04345703 -0.04199219 C14.17953493 -0.04774336 16.31561281 -0.05350109 18.45169067 -0.05926514 C22.93231446 -0.06977455 27.41292031 -0.07561773 31.89355469 -0.07910156 C37.63597751 -0.08458873 43.37816351 -0.10862189 49.12051201 -0.13707352 C53.53342381 -0.15569236 57.94627846 -0.16090508 62.35922623 -0.16243744 C64.47633281 -0.16546576 66.59343835 -0.17350032 68.71050644 -0.18662262 C71.67177131 -0.20366851 74.63245603 -0.20180643 77.59375 -0.1953125 C78.46873138 -0.20452728 79.34371277 -0.21374207 80.24520874 -0.22323608 C84.9537129 -0.19087463 88.11431873 0.07430786 91.92626953 3.16113281 C93.07453803 5.45766981 93.04188128 6.74426448 93.02392578 9.29394531 C93.0190918 10.50244141 93.0190918 10.50244141 93.01416016 11.73535156 C93.0015918 12.99798828 93.0015918 12.99798828 92.98876953 14.28613281 C92.98425781 15.135625 92.97974609 15.98511719 92.97509766 16.86035156 C92.96329827 18.9606419 92.94536259 21.06089612 92.92626953 23.16113281 C93.98458984 23.27199219 95.04291016 23.38285156 96.13330078 23.49707031 C101.91272577 24.50891609 106.68812912 27.31593513 110.35205078 31.97363281 C113.8008116 37.79263289 114.67189549 43.51440997 113.92626953 50.16113281 C112.10888954 56.81756074 108.77278845 61.49088351 102.92626953 65.16113281 C99.72441095 66.68968736 96.53035971 68.16113281 92.92626953 68.16113281 C92.97267578 69.34191406 93.01908203 70.52269531 93.06689453 71.73925781 C93.10441902 73.29652415 93.14081846 74.85381789 93.17626953 76.41113281 C93.20978516 77.1884375 93.24330078 77.96574219 93.27783203 78.76660156 C93.29716797 79.89775391 93.29716797 79.89775391 93.31689453 81.05175781 C93.3378418 81.74301758 93.35878906 82.43427734 93.38037109 83.14648438 C92.65619899 86.35931676 91.67701869 87.31163208 88.92626953 89.16113281 C85.43888179 89.71720265 81.99654246 89.62556548 78.47314453 89.55175781 C77.45778625 89.54609802 76.44242798 89.54043823 75.39630127 89.53460693 C72.15580952 89.51223034 68.91642663 89.46203036 65.67626953 89.41113281 C63.47836884 89.39106953 61.28045081 89.37281846 59.08251953 89.35644531 C53.69667612 89.31236112 48.31166078 89.24332357 42.92626953 89.16113281 C42.92626953 92.13113281 42.92626953 95.10113281 42.92626953 98.16113281 C44.21404297 98.14953125 45.50181641 98.13792969 46.82861328 98.12597656 C48.50699726 98.11660012 50.18538279 98.10749976 51.86376953 98.09863281 C52.71390625 98.09025391 53.56404297 98.081875 54.43994141 98.07324219 C55.24882813 98.07001953 56.05771484 98.06679687 56.89111328 98.06347656 C57.63997803 98.05823975 58.38884277 98.05300293 59.16040039 98.04760742 C60.92626953 98.16113281 60.92626953 98.16113281 61.92626953 99.16113281 C62.05126953 101.66113281 62.05126953 101.66113281 61.92626953 104.16113281 C60.38125503 105.70614732 58.93966733 105.28832413 56.78955078 105.29052734 C55.47313599 105.29525558 55.47313599 105.29525558 54.13012695 105.30007935 C53.175979 105.29805511 52.22183105 105.29603088 51.23876953 105.29394531 C49.7795105 105.2953804 49.7795105 105.2953804 48.29077148 105.29684448 C46.22949153 105.2975264 44.16820945 105.29567134 42.10693359 105.29150391 C38.93989265 105.28615582 35.77299353 105.29144853 32.60595703 105.29785156 C30.60856088 105.29719078 28.61116482 105.29590962 26.61376953 105.29394531 C25.65962158 105.29596954 24.70547363 105.29799377 23.72241211 105.30007935 C22.84480225 105.29692719 21.96719238 105.29377502 21.06298828 105.29052734 C20.28656982 105.28973175 19.51015137 105.28893616 18.71020508 105.28811646 C16.92626953 105.16113281 16.92626953 105.16113281 15.92626953 104.16113281 C15.80126953 101.66113281 15.80126953 101.66113281 15.92626953 99.16113281 C16.92626953 98.16113281 16.92626953 98.16113281 18.69213867 98.04760742 C19.44100342 98.05284424 20.18986816 98.05808105 20.96142578 98.06347656 C21.7703125 98.06669922 22.57919922 98.06992188 23.41259766 98.07324219 C24.26273438 98.08162109 25.11287109 98.09 25.98876953 98.09863281 C26.84277344 98.10314453 27.69677734 98.10765625 28.57666016 98.11230469 C30.69322617 98.12412908 32.80975638 98.14206513 34.92626953 98.16113281 C34.92626953 95.19113281 34.92626953 92.22113281 34.92626953 89.16113281 C32.86747559 89.19255371 32.86747559 89.19255371 30.76708984 89.22460938 C25.67572458 89.29699952 20.58440483 89.34292933 15.49267578 89.38085938 C13.28882193 89.400977 11.08502146 89.42827453 8.88134766 89.46289062 C5.71389597 89.51140115 2.54714985 89.53410017 -0.62060547 89.55175781 C-2.09892853 89.58272552 -2.09892853 89.58272552 -3.6071167 89.61431885 C-4.52776917 89.61462097 -5.44842163 89.6149231 -6.39697266 89.61523438 C-7.60942657 89.62855804 -7.60942657 89.62855804 -8.84637451 89.64215088 C-12.07668836 88.9445348 -13.16783255 87.85167451 -15.07373047 85.16113281 C-15.4634525 82.4464739 -15.61148319 80.13859823 -15.57543945 77.42675781 C-15.58084244 76.65231323 -15.58624542 75.87786865 -15.59181213 75.07995605 C-15.60430635 72.52329133 -15.58780461 69.96775123 -15.56982422 67.41113281 C-15.56997919 65.6328119 -15.57146788 63.85449064 -15.57423401 62.07617188 C-15.57561831 58.35043392 -15.56305493 54.62508079 -15.5402832 50.89941406 C-15.51189838 46.12425332 -15.51463543 41.34973199 -15.52737331 36.57452393 C-15.53432907 32.9027765 -15.5265424 29.23117681 -15.51411629 25.55944824 C-15.50960078 23.7987932 -15.50926586 22.0381223 -15.51318169 20.27746582 C-15.51609293 17.81648259 -15.49959184 15.35637977 -15.4777832 12.89550781 C-15.48228485 12.16811401 -15.4867865 11.44072021 -15.49142456 10.69128418 C-15.44607605 7.61062897 -15.23866601 5.4596125 -13.73597717 2.74023438 C-9.95443511 -0.85215595 -4.87835622 0.00620379 0 0 Z M-8.07373047 8.16113281 C-8.07373047 27.63113281 -8.07373047 47.10113281 -8.07373047 67.16113281 C21.95626953 67.16113281 51.98626953 67.16113281 82.92626953 67.16113281 C81.27626953 65.84113281 79.62626953 64.52113281 77.92626953 63.16113281 C73.2857184 58.96253893 70.2899479 55.558421 69.60595703 49.16894531 C69.36925275 42.33608187 69.6622627 36.70170959 73.92626953 31.16113281 C77.43870134 27.40204146 81.2746131 25.48696103 85.92626953 23.16113281 C85.92626953 18.21113281 85.92626953 13.26113281 85.92626953 8.16113281 C54.90626953 8.16113281 23.88626953 8.16113281 -8.07373047 8.16113281 Z M78.60205078 35.70410156 C75.65685778 40.22006416 75.33615413 43.85009424 75.92626953 49.16113281 C77.63787748 53.8455335 79.65935644 56.56388137 83.92626953 59.16113281 C88.49654097 60.90505218 91.83159607 61.43943962 96.61376953 60.22363281 C101.16921882 57.38722099 104.73154749 54.33858505 106.66064453 49.20800781 C107.59283302 44.47249028 106.5261136 41.06838413 104.17236328 36.92285156 C101.66895394 33.3835487 98.99251491 31.51654794 94.92626953 30.16113281 C88.19578095 29.60025876 83.17585086 30.37474749 78.60205078 35.70410156 Z M-8.07373047 74.16113281 C-8.07373047 76.80113281 -8.07373047 79.44113281 -8.07373047 82.16113281 C22.94626953 82.16113281 53.96626953 82.16113281 85.92626953 82.16113281 C85.92626953 79.52113281 85.92626953 76.88113281 85.92626953 74.16113281 C54.90626953 74.16113281 23.88626953 74.16113281 -8.07373047 74.16113281 Z " fill="#ff851b" transform="translate(18.07373046875,54.8388671875)"/>
<path d="M0 0 C0.84175781 -0.00257812 1.68351563 -0.00515625 2.55078125 -0.0078125 C3.87142578 0.00378906 3.87142578 0.00378906 5.21875 0.015625 C6.09917969 0.00789063 6.97960937 0.00015625 7.88671875 -0.0078125 C8.72847656 -0.00523438 9.57023437 -0.00265625 10.4375 0 C11.59668945 0.00338379 11.59668945 0.00338379 12.77929688 0.00683594 C14.71875 0.265625 14.71875 0.265625 16.71875 2.265625 C16.38875 3.915625 16.05875 5.565625 15.71875 7.265625 C10.76875 7.265625 5.81875 7.265625 0.71875 7.265625 C0.71875 27.395625 0.71875 47.525625 0.71875 68.265625 C4.34875 68.265625 7.97875 68.265625 11.71875 68.265625 C12.37875 68.925625 13.03875 69.585625 13.71875 70.265625 C13.38875 71.915625 13.05875 73.565625 12.71875 75.265625 C8.75875 75.265625 4.79875 75.265625 0.71875 75.265625 C0.71875 96.385625 0.71875 117.505625 0.71875 139.265625 C5.66875 139.265625 10.61875 139.265625 15.71875 139.265625 C16.04875 140.915625 16.37875 142.565625 16.71875 144.265625 C14.31045208 146.67392292 13.72591444 146.52165079 10.4375 146.53125 C9.59574219 146.53382813 8.75398438 146.53640625 7.88671875 146.5390625 C7.00628906 146.53132812 6.12585938 146.52359375 5.21875 146.515625 C4.33832031 146.52335938 3.45789063 146.53109375 2.55078125 146.5390625 C1.70902344 146.53648437 0.86726562 146.53390625 0 146.53125 C-0.77279297 146.52899414 -1.54558594 146.52673828 -2.34179688 146.52441406 C-4.28125 146.265625 -4.28125 146.265625 -6.28125 144.265625 C-6.52175903 141.40560913 -6.52175903 141.40560913 -6.50830078 137.70458984 C-6.50859283 137.03130142 -6.50888489 136.358013 -6.50918579 135.6643219 C-6.50779047 133.43493846 -6.49222016 131.20588768 -6.4765625 128.9765625 C-6.47283308 127.43242577 -6.46998577 125.88828667 -6.46798706 124.34414673 C-6.46034499 120.27687057 -6.44069168 116.20973689 -6.4185791 112.14251709 C-6.39813296 107.9934685 -6.38898799 103.84439693 -6.37890625 99.6953125 C-6.35744625 91.55201789 -6.32330349 83.40883916 -6.28125 75.265625 C-7.93125 74.935625 -9.58125 74.605625 -11.28125 74.265625 C-11.28125 72.615625 -11.28125 70.965625 -11.28125 69.265625 C-8.80625 68.770625 -8.80625 68.770625 -6.28125 68.265625 C-6.28569122 67.4432132 -6.29013245 66.62080139 -6.29470825 65.77346802 C-6.33473672 58.03340584 -6.36520975 50.29339365 -6.38487434 42.55325508 C-6.39532386 38.57370727 -6.40950422 34.59424479 -6.43212891 30.61474609 C-6.45381585 26.77628614 -6.46580982 22.93790841 -6.47100449 19.09939194 C-6.47470773 17.63292013 -6.481939 16.16645295 -6.49271011 14.70001602 C-6.50717019 12.65033394 -6.50923029 10.60099418 -6.50830078 8.55126953 C-6.512742 7.38322784 -6.51718323 6.21518616 -6.52175903 5.01174927 C-6.11891555 0.41209562 -4.14714009 0.01210591 0 0 Z " fill="#ff851b" transform="translate(144.28125,26.734375)"/>
<path d="M0 0 C0.71353638 0.00202423 1.42707275 0.00404846 2.16223145 0.00613403 C2.89091431 0.00517731 3.61959717 0.00422058 4.37036133 0.00323486 C5.91377855 0.00255318 7.45719861 0.00440666 9.00061035 0.00857544 C11.37095544 0.01392391 13.74111104 0.00863011 16.1114502 0.00222778 C17.60754437 0.00288857 19.10363842 0.00416973 20.59973145 0.00613403 C21.31326782 0.0041098 22.0268042 0.00208557 22.76196289 0 C27.76602953 0.02399462 27.76602953 0.02399462 28.88098145 1.13894653 C28.96945887 3.6598873 28.99625446 6.15325546 28.9786377 8.67410278 C28.97722275 9.42735336 28.9758078 10.18060394 28.97434998 10.9566803 C28.9687352 13.37164213 28.95618027 15.78651254 28.94348145 18.20144653 C28.93846834 19.83490874 28.93390511 21.46837239 28.92980957 23.10183716 C28.91876098 27.11424238 28.90148651 31.12657894 28.88098145 35.13894653 C25.93377535 36.61254958 22.95062777 36.28128249 19.7208252 36.27175903 C19.01575333 36.27271576 18.31068146 36.27367249 17.58424377 36.2746582 C16.09388134 36.27533882 14.60351593 36.27349275 13.11315918 36.26931763 C10.82411087 36.26395971 8.53525807 36.26927062 6.24621582 36.27566528 C4.80025184 36.27500464 3.35428799 36.27372375 1.9083252 36.27175903 C0.87553688 36.27479538 0.87553688 36.27479538 -0.17811584 36.27789307 C-5.00406092 36.25390417 -5.00406092 36.25390417 -6.11901855 35.13894653 C-6.21989067 32.629705 -6.25873888 30.14858269 -6.25183105 27.63894653 C-6.25278778 26.88806763 -6.25374451 26.13718872 -6.25473022 25.36355591 C-6.25541194 23.77306027 -6.25355827 22.18256186 -6.24938965 20.59207153 C-6.24404122 18.14929999 -6.24933489 15.70671232 -6.2557373 13.26394653 C-6.25507652 11.72227946 -6.25379536 10.1806125 -6.25183105 8.63894653 C-6.25385529 7.90353638 -6.25587952 7.16812622 -6.25796509 6.41043091 C-6.22990923 0.38120035 -6.04595781 0.02899051 0 0 Z M0.88098145 7.13894653 C0.88098145 14.39894653 0.88098145 21.65894653 0.88098145 29.13894653 C7.81098145 29.13894653 14.74098145 29.13894653 21.88098145 29.13894653 C21.88098145 21.87894653 21.88098145 14.61894653 21.88098145 7.13894653 C14.95098145 7.13894653 8.02098145 7.13894653 0.88098145 7.13894653 Z " fill="#ff851b" transform="translate(168.1190185546875,81.86105346679688)"/>
<path d="M0 0 C0.71353638 0.00202423 1.42707275 0.00404846 2.16223145 0.00613403 C2.89091431 0.00517731 3.61959717 0.00422058 4.37036133 0.00323486 C5.91377855 0.00255318 7.45719861 0.00440666 9.00061035 0.00857544 C11.37095544 0.01392391 13.74111104 0.00863011 16.1114502 0.00222778 C17.60754437 0.00288857 19.10363842 0.00416973 20.59973145 0.00613403 C21.31326782 0.0041098 22.0268042 0.00208557 22.76196289 0 C27.76602953 0.02399462 27.76602953 0.02399462 28.88098145 1.13894653 C28.98180908 3.57555099 29.02070748 5.98319354 29.01379395 8.42019653 C29.01475067 9.14887939 29.0157074 9.87756226 29.01669312 10.62832642 C29.0173748 12.17174363 29.01552132 13.7151637 29.01135254 15.25857544 C29.00600407 17.62892053 29.01129787 19.99907613 29.0177002 22.36941528 C29.01703941 23.86550945 29.01575824 25.36160351 29.01379395 26.85769653 C29.01581818 27.57123291 29.01784241 28.28476929 29.01992798 29.01992798 C28.99593336 34.02399462 28.99593336 34.02399462 27.88098145 35.13894653 C25.44437699 35.23977417 23.03673444 35.27867257 20.59973145 35.27175903 C19.87104858 35.27271576 19.14236572 35.27367249 18.39160156 35.2746582 C16.84818435 35.27533989 15.30476428 35.27348641 13.76135254 35.26931763 C11.39100745 35.26396916 9.02085185 35.26926295 6.6505127 35.27566528 C5.15441852 35.2750045 3.65832447 35.27372333 2.16223145 35.27175903 C1.09192688 35.27479538 1.09192688 35.27479538 0 35.27789307 C-5.00406664 35.25389845 -5.00406664 35.25389845 -6.11901855 34.13894653 C-6.21984619 31.70234208 -6.25874459 29.29469952 -6.25183105 26.85769653 C-6.25278778 26.12901367 -6.25374451 25.40033081 -6.25473022 24.64956665 C-6.25541191 23.10614943 -6.25355843 21.56272936 -6.24938965 20.01931763 C-6.24404118 17.64897254 -6.24933498 15.27881694 -6.2557373 12.90847778 C-6.25507652 11.41238361 -6.25379535 9.91628956 -6.25183105 8.42019653 C-6.25385529 7.70666016 -6.25587952 6.99312378 -6.25796509 6.25796509 C-6.22942597 0.30614658 -5.95181851 0.02853911 0 0 Z M0.88098145 7.13894653 C0.88098145 14.06894653 0.88098145 20.99894653 0.88098145 28.13894653 C7.81098145 28.13894653 14.74098145 28.13894653 21.88098145 28.13894653 C21.88098145 21.20894653 21.88098145 14.27894653 21.88098145 7.13894653 C14.95098145 7.13894653 8.02098145 7.13894653 0.88098145 7.13894653 Z " fill="#ff851b" transform="translate(168.1190185546875,150.86105346679688)"/>
<path d="M0 0 C0.71353638 0.00202423 1.42707275 0.00404846 2.16223145 0.00613403 C2.89091431 0.00517731 3.61959717 0.00422058 4.37036133 0.00323486 C5.91377855 0.00255318 7.45719861 0.00440666 9.00061035 0.00857544 C11.37095544 0.01392391 13.74111104 0.00863011 16.1114502 0.00222778 C17.60754437 0.00288857 19.10363842 0.00416973 20.59973145 0.00613403 C21.31326782 0.0041098 22.0268042 0.00208557 22.76196289 0 C27.76602953 0.02399462 27.76602953 0.02399462 28.88098145 1.13894653 C28.98180908 3.57555099 29.02070748 5.98319354 29.01379395 8.42019653 C29.01475067 9.14887939 29.0157074 9.87756226 29.01669312 10.62832642 C29.0173748 12.17174363 29.01552132 13.7151637 29.01135254 15.25857544 C29.00600407 17.62892053 29.01129787 19.99907613 29.0177002 22.36941528 C29.01703941 23.86550945 29.01575824 25.36160351 29.01379395 26.85769653 C29.01581818 27.57123291 29.01784241 28.28476929 29.01992798 29.01992798 C28.99593336 34.02399462 28.99593336 34.02399462 27.88098145 35.13894653 C25.44437699 35.23977417 23.03673444 35.27867257 20.59973145 35.27175903 C19.87104858 35.27271576 19.14236572 35.27367249 18.39160156 35.2746582 C16.84818435 35.27533989 15.30476428 35.27348641 13.76135254 35.26931763 C11.39100745 35.26396916 9.02085185 35.26926295 6.6505127 35.27566528 C5.15441852 35.2750045 3.65832447 35.27372333 2.16223145 35.27175903 C1.09192688 35.27479538 1.09192688 35.27479538 0 35.27789307 C-5.00406664 35.25389845 -5.00406664 35.25389845 -6.11901855 34.13894653 C-6.21984619 31.70234208 -6.25874459 29.29469952 -6.25183105 26.85769653 C-6.25278778 26.12901367 -6.25374451 25.40033081 -6.25473022 24.64956665 C-6.25541191 23.10614943 -6.25355843 21.56272936 -6.24938965 20.01931763 C-6.24404118 17.64897254 -6.24933498 15.27881694 -6.2557373 12.90847778 C-6.25507652 11.41238361 -6.25379535 9.91628956 -6.25183105 8.42019653 C-6.25385529 7.70666016 -6.25587952 6.99312378 -6.25796509 6.25796509 C-6.22942597 0.30614658 -5.95181851 0.02853911 0 0 Z M0.88098145 7.13894653 C0.88098145 14.06894653 0.88098145 20.99894653 0.88098145 28.13894653 C7.81098145 28.13894653 14.74098145 28.13894653 21.88098145 28.13894653 C21.88098145 21.20894653 21.88098145 14.27894653 21.88098145 7.13894653 C14.95098145 7.13894653 8.02098145 7.13894653 0.88098145 7.13894653 Z " fill="#ff851b" transform="translate(168.1190185546875,13.861053466796875)"/>
<path d="M0 0 C0.85436142 -0.00315216 1.70872284 -0.00630432 2.588974 -0.009552 C3.51811111 -0.00752777 4.44724823 -0.00550354 5.40454102 -0.00341797 C6.35281265 -0.00437469 7.30108429 -0.00533142 8.27809143 -0.00631714 C10.28809678 -0.0069991 12.29810432 -0.0051437 14.30810547 -0.00097656 C17.39173316 0.00436558 20.4752148 -0.00091797 23.55883789 -0.00732422 C25.50740592 -0.00666332 27.45597386 -0.00538193 29.40454102 -0.00341797 C30.3316539 -0.0054422 31.25876678 -0.00746643 32.213974 -0.009552 C33.07148758 -0.00639984 33.92900116 -0.00324768 34.8125 0 C35.56893295 0.00079559 36.32536591 0.00159119 37.10472107 0.00241089 C38.97094727 0.12939453 38.97094727 0.12939453 40.97094727 1.12939453 C40.97094727 3.10939453 40.97094727 5.08939453 40.97094727 7.12939453 C38.70489239 8.26242197 37.45149915 8.26157061 34.93603516 8.2746582 C33.68947899 8.28422798 33.68947899 8.28422798 32.41773987 8.29399109 C31.51877487 8.29510391 30.61980988 8.29621674 29.69360352 8.29736328 C28.77131454 8.30069168 27.84902557 8.30402008 26.89878845 8.30744934 C24.94603983 8.31251723 22.99328253 8.31485771 21.04052734 8.31469727 C18.04909023 8.3168831 15.05802218 8.33503844 12.06665039 8.35400391 C10.17146936 8.35693795 8.27628658 8.35892267 6.38110352 8.35986328 C5.48416275 8.3670488 4.58722198 8.37423431 3.6631012 8.38163757 C2.82891159 8.37856094 1.99472198 8.37548431 1.13525391 8.37231445 C0.40182266 8.37373947 -0.33160858 8.37516449 -1.08726501 8.37663269 C-3.02905273 8.12939453 -3.02905273 8.12939453 -6.02905273 6.12939453 C-4.92983663 0.00519051 -4.92983663 0.00519051 0 0 Z " fill="#ff851b" transform="translate(42.029052734375,76.87060546875)"/>
<path d="M0 0 C0.79719955 0.00222061 1.59439911 0.00444122 2.41575623 0.00672913 C3.31661453 0.00680466 4.21747284 0.00688019 5.14562988 0.00695801 C6.12478867 0.01211929 7.10394745 0.01728058 8.11277771 0.02259827 C9.11018478 0.02401321 10.10759186 0.02542816 11.13522339 0.02688599 C14.3348027 0.03250337 17.53431315 0.04505881 20.73387146 0.05775452 C22.89728191 0.06276728 25.06069345 0.06733057 27.22410583 0.07142639 C32.53988471 0.08247845 37.85562317 0.09923348 43.17137146 0.12025452 C43.83137146 1.44025452 44.49137146 2.76025452 45.17137146 4.12025452 C44.51137146 5.11025452 43.85137146 6.10025452 43.17137146 7.12025452 C41.22921753 7.48774719 41.22921753 7.48774719 38.82933044 7.47669983 C37.48299782 7.48120148 37.48299782 7.48120148 36.10946655 7.48579407 C35.13860611 7.47344727 34.16774567 7.46110046 33.16746521 7.44837952 C32.17384476 7.44650635 31.1802243 7.44463318 30.15649414 7.44270325 C28.05407867 7.43597377 25.95167591 7.42204162 23.84934998 7.40150452 C20.6186825 7.37034913 17.38850237 7.36053547 14.15769958 7.35462952 C12.11928213 7.34546004 10.08086968 7.33508444 8.04246521 7.32337952 C7.06958054 7.31912964 6.09669586 7.31487976 5.09432983 7.3105011 C4.19992691 7.30089355 3.30552399 7.29128601 2.38401794 7.28138733 C1.19726723 7.27114532 1.19726723 7.27114532 -0.01345825 7.26069641 C-1.82862854 7.12025452 -1.82862854 7.12025452 -2.82862854 6.12025452 C-2.95362854 3.62025452 -2.95362854 3.62025452 -2.82862854 1.12025452 C-1.82862854 0.12025452 -1.82862854 0.12025452 0 0 Z " fill="#ff851b" transform="translate(38.82862854003906,100.87974548339844)"/>
<path d="M0 0 C1.11761719 0.36931641 1.11761719 0.36931641 2.2578125 0.74609375 C2.953125 2.5 2.953125 2.5 3.2578125 4.74609375 C2 6.7109375 2 6.7109375 0.1328125 8.68359375 C-0.51816406 9.37195313 -1.16914062 10.0603125 -1.83984375 10.76953125 C-2.46761719 11.42179687 -3.09539062 12.0740625 -3.7421875 12.74609375 C-4.5878125 13.75671875 -5.4334375 14.76734375 -6.3046875 15.80859375 C-8.7421875 17.74609375 -8.7421875 17.74609375 -11.8046875 17.74609375 C-14.76885904 16.73701408 -16.61073176 16.04150762 -18.7421875 13.74609375 C-19.0546875 11.12109375 -19.0546875 11.12109375 -18.7421875 8.74609375 C-18.4121875 8.41609375 -18.0821875 8.08609375 -17.7421875 7.74609375 C-16.7315625 7.89046875 -15.7209375 8.03484375 -14.6796875 8.18359375 C-9.44976978 7.60249178 -7.9790315 5.33645421 -4.734375 1.3984375 C-2.7421875 -0.25390625 -2.7421875 -0.25390625 0 0 Z " fill="#ff851b" transform="translate(117.7421875,90.25390625)"/>
<path d="M0 0 C1.34771484 -0.00386719 1.34771484 -0.00386719 2.72265625 -0.0078125 C4.9375 0.125 4.9375 0.125 5.9375 1.125 C6.00994053 3.14464199 6.02127188 5.16667124 6 7.1875 C5.99097656 8.29222656 5.98195313 9.39695312 5.97265625 10.53515625 C5.96105469 11.38980469 5.94945312 12.24445313 5.9375 13.125 C3.57136544 14.30806728 2.06969264 14.25854608 -0.5625 14.25 C-1.3565625 14.25257812 -2.150625 14.25515625 -2.96875 14.2578125 C-5.0625 14.125 -5.0625 14.125 -7.0625 13.125 C-7.0625 9.165 -7.0625 5.205 -7.0625 1.125 C-4.56110398 -0.12569801 -2.78857309 -0.00802467 0 0 Z " fill="#ff851b" transform="translate(25.0625,96.875)"/>
<path d="M0 0 C1.50046875 0.00386719 1.50046875 0.00386719 3.03125 0.0078125 C4.0315625 0.00523438 5.031875 0.00265625 6.0625 0 C8.53125 0.1328125 8.53125 0.1328125 9.53125 1.1328125 C9.62976171 2.96397133 9.66097629 4.79901183 9.65625 6.6328125 C9.65882812 7.633125 9.66140625 8.6334375 9.6640625 9.6640625 C9.53125 12.1328125 9.53125 12.1328125 8.53125 13.1328125 C6.70009117 13.23132421 4.86505067 13.26253879 3.03125 13.2578125 C2.0309375 13.26039062 1.030625 13.26296875 0 13.265625 C-2.46875 13.1328125 -2.46875 13.1328125 -3.46875 12.1328125 C-3.56726171 10.30165367 -3.59847629 8.46661317 -3.59375 6.6328125 C-3.59632812 5.6325 -3.59890625 4.6321875 -3.6015625 3.6015625 C-3.42265191 0.27593033 -3.32563217 0.17891059 0 0 Z " fill="#ff851b" transform="translate(21.46875,73.8671875)"/>
<path d="M0 0 C2.3125 0.25 2.3125 0.25 4 1 C4.7578125 3.2265625 4.7578125 3.2265625 5 6 C3.3046875 8.2734375 3.3046875 8.2734375 0.875 10.375 C0.08867187 11.08398438 -0.69765625 11.79296875 -1.5078125 12.5234375 C-4 14 -4 14 -6.66015625 13.82421875 C-9.21346902 12.92480474 -10.94735245 11.74855161 -13 10 C-12.67 8.35 -12.34 6.7 -12 5 C-10.948125 4.9175 -9.89625 4.835 -8.8125 4.75 C-4.66766898 3.93462341 -3.19881948 2.59363742 0 0 Z " fill="#ff851b" transform="translate(184,24)"/>
<path d="M0 0 C1.1446875 0.0928125 1.1446875 0.0928125 2.3125 0.1875 C3.3125 2.75 3.3125 2.75 3.3125 6.1875 C1.08608985 9.20736483 -1.42938057 11.33693303 -4.6875 13.1875 C-9.13419329 13.26039661 -11.00219504 12.64436997 -14.6875 10.1875 C-14.875 7.5625 -14.875 7.5625 -14.6875 5.1875 C-13.945 5.043125 -13.2025 4.89875 -12.4375 4.75 C-11.07625 4.4715625 -11.07625 4.4715625 -9.6875 4.1875 C-8.635625 4.001875 -8.635625 4.001875 -7.5625 3.8125 C-5.57482385 3.31801815 -5.57482385 3.31801815 -4.25 1.625 C-2.6875 0.1875 -2.6875 0.1875 0 0 Z " fill="#ff851b" transform="translate(185.6875,92.8125)"/>
</svg>