<svg version="1.1" xmlns="http://www.w3.org/2000/svg" width="512px" height="512px" transform="rotate(0) scale(1, 1)">
<path d="M0 0 C5.23442114 7.85163171 3.14662826 20.41255846 3.1328125 29.62109375 C3.13348733 31.21387242 3.13445885 32.806651 3.13571167 34.39942932 C3.13717721 37.71673577 3.13506912 41.03401509 3.13037109 44.35131836 C3.12464172 48.60384212 3.12798018 52.8563032 3.13394356 57.10882473 C3.13755237 60.38843766 3.13640967 63.66803563 3.13381577 66.947649 C3.13314907 68.51655141 3.13396593 70.08545518 3.13629532 71.654356 C3.13883063 73.8391876 3.13497031 76.02391632 3.12939453 78.20874023 C3.12820114 80.07211281 3.12820114 80.07211281 3.12698364 81.97312927 C3 85 3 85 2 88 C2.8765625 88.09410156 3.753125 88.18820313 4.65625 88.28515625 C11.26710074 89.69845728 16.73219467 94.23821727 20.97265625 99.40234375 C26.1180848 107.40493901 27.82133129 115.70994377 26.66015625 125.1328125 C24.54825729 134.30520207 19.8736363 141.81845258 12 147 C3.55529301 152.06061485 -5.9858968 153.16459492 -15.52734375 150.8359375 C-24.97373615 147.6423704 -31.27936409 141.77569913 -36 133 C-36.33 131.02 -36.66 129.04 -37 127 C-103.66 127 -170.32 127 -239 127 C-239.33 128.98 -239.66 130.96 -240 133 C-244.67372089 141.53189317 -251.8794298 147.3212097 -261.04296875 150.3046875 C-270.105863 152.43572472 -278.80517002 151.46229428 -287 147 C-293.5128766 142.32432414 -298.14572759 137.52489998 -301 130 C-301 129.01 -301 128.02 -301 127 C-304.46127384 127.39417288 -307.91806584 127.81954735 -311.375 128.25 C-312.34050781 128.35957031 -313.30601562 128.46914062 -314.30078125 128.58203125 C-328.17250721 130.35090906 -338.45663897 136.0807731 -347.43359375 146.828125 C-355.63309486 158.19700934 -357.19304217 170.38833473 -356 184 C-353.66018741 196.51169246 -346.15762664 206.55991132 -336 214 C-324.31828625 221.03049541 -312.6652268 222.12454547 -299.33959961 222.20532227 C-298.31416046 222.21522186 -297.28872131 222.22512146 -296.23220825 222.23532104 C-292.8722762 222.26668789 -289.51233005 222.29159448 -286.15234375 222.31640625 C-283.81107738 222.33699725 -281.46981455 222.35799426 -279.1285553 222.37937927 C-272.98840209 222.43437837 -266.84821656 222.48388475 -260.70800781 222.53222656 C-254.43356476 222.58260412 -248.15916819 222.63820506 -241.88476562 222.69335938 C-229.58988354 222.8006696 -217.29496095 222.90217403 -205 223 C-204.85900879 222.05382812 -204.71801758 221.10765625 -204.57275391 220.1328125 C-203.38787433 213.65183438 -198.06631519 208.36161483 -193.03125 204.3203125 C-184.47946 198.761649 -175.02984236 197.54588192 -165.1484375 199.58984375 C-156.97666474 202.08741374 -150.25823194 207.1337001 -145.48828125 214.2578125 C-143.90574938 217.26739943 -143 219.57792991 -143 223 C-142.40899663 222.99631283 -141.81799326 222.99262566 -141.2090807 222.98882675 C-126.7757301 222.90018269 -112.34240393 222.83414869 -97.90884113 222.79275131 C-90.92862942 222.77219561 -83.94860031 222.7442104 -76.96850586 222.69824219 C-70.22521945 222.65385497 -63.48212235 222.63082418 -56.73869896 222.62049103 C-54.17324029 222.61313241 -51.6077913 222.59876319 -49.04241371 222.57707977 C-23.30854437 222.36833032 -23.30854437 222.36833032 -13 227 C-12.08765091 227.38847107 -11.17530182 227.77694214 -10.23530579 228.17718506 C2.66970783 233.89150665 12.61820648 244.14129455 19.3125 256.375 C19.63814941 256.96289307 19.96379883 257.55078613 20.29931641 258.15649414 C25.07274712 267.32977194 26.54227382 276.62119045 26.4375 286.875 C26.42920166 287.92856689 26.42090332 288.98213379 26.41235352 290.06762695 C26.23905519 298.05723495 25.35737007 304.66574514 22 312 C21.525625 313.06992187 21.05125 314.13984375 20.5625 315.2421875 C12.53996296 331.63439059 -0.83284493 342.82260053 -18 349 C-24.56210162 350.91839079 -30.7566292 351.25482586 -37.5625 351.125 C-38.47580078 351.11597656 -39.38910156 351.10695313 -40.33007812 351.09765625 C-42.55367319 351.07437253 -44.77668677 351.0416771 -47 351 C-47.11085938 351.9075 -47.22171875 352.815 -47.3359375 353.75 C-48.6731998 360.29471903 -53.84715176 365.56893102 -58.96875 369.6796875 C-67.52054 375.238351 -76.97015764 376.45411808 -86.8515625 374.41015625 C-95.02333526 371.91258626 -101.74176806 366.8662999 -106.51171875 359.7421875 C-108.09425062 356.73260057 -109 354.42207009 -109 351 C-110.15622864 351.00888245 -111.31245728 351.01776489 -112.50372314 351.0269165 C-123.39236951 351.10795223 -134.28095481 351.16794138 -145.16983414 351.20724869 C-150.76813561 351.22813628 -156.36619394 351.25647564 -161.96435547 351.30175781 C-167.36544947 351.34517327 -172.76630938 351.36912828 -178.16756439 351.37950897 C-180.22970007 351.38690804 -182.29182274 351.40135647 -184.35385895 351.42292023 C-187.23911876 351.45189678 -190.12340749 351.45595838 -193.00878906 351.45410156 C-193.86402664 351.46848267 -194.71926422 351.48286377 -195.60041809 351.49768066 C-201.39249899 351.45726434 -201.39249899 351.45726434 -204.52874756 349.09661865 C-206.11971791 346.82939515 -206.54281795 345.7403488 -206.5 343 C-206.5103125 342.34 -206.520625 341.68 -206.53125 341 C-205.71984092 337.94528347 -204.53298828 336.90657333 -202 335 C-199.004476 334.41605841 -196.05187639 334.49472791 -193.00878906 334.54589844 C-192.10112289 334.54531433 -191.19345673 334.54473022 -190.25828552 334.54412842 C-187.26034199 334.54691351 -184.26339468 334.5780258 -181.265625 334.609375 C-179.18626448 334.61683587 -177.10689692 334.62252953 -175.02752686 334.62652588 C-169.55617846 334.64179425 -164.0852552 334.68108674 -158.61407471 334.7253418 C-153.03053539 334.76626837 -147.44692734 334.78453133 -141.86328125 334.8046875 C-130.90866744 334.84757957 -119.95436908 334.91584571 -109 335 C-108.85900879 334.05382812 -108.71801758 333.10765625 -108.57275391 332.1328125 C-107.38787433 325.65183438 -102.06631519 320.36161483 -97.03125 316.3203125 C-88.47946 310.761649 -79.02984236 309.54588192 -69.1484375 311.58984375 C-60.97666474 314.08741374 -54.25823194 319.1337001 -49.48828125 326.2578125 C-47.90574938 329.26739943 -47 331.57792991 -47 335 C-29.56100887 333.52737408 -15.23661129 330.96375606 -2.6875 317.6875 C6.72863951 306.52129012 8.9029439 294.34487969 8.19091797 280.17822266 C7.10002152 267.73195912 -0.30185291 257.60946299 -9.6015625 249.75390625 C-21.63877694 240.95144814 -34.3481699 239.88245563 -48.77392578 239.79467773 C-49.79951096 239.78477814 -50.82509613 239.77487854 -51.88175964 239.76467896 C-55.23625463 239.73335641 -58.59076372 239.70842347 -61.9453125 239.68359375 C-64.2851496 239.6629989 -66.62498319 239.6420018 -68.96481323 239.62062073 C-75.096732 239.56566133 -81.22868288 239.51613774 -87.36065674 239.46777344 C-93.62848742 239.41736656 -99.89627199 239.36178105 -106.1640625 239.30664062 C-118.44266885 239.1993791 -130.7213154 239.09786422 -143 239 C-143.14099121 239.94617188 -143.28198242 240.89234375 -143.42724609 241.8671875 C-144.61212567 248.34816562 -149.93368481 253.63838517 -154.96875 257.6796875 C-163.52054 263.238351 -172.97015764 264.45411808 -182.8515625 262.41015625 C-191.02333526 259.91258626 -197.74176806 254.8662999 -202.51171875 247.7421875 C-204.09425062 244.73260057 -205 242.42207009 -205 239 C-205.58677143 239.00276538 -206.17354286 239.00553076 -206.77809525 239.00837994 C-221.1026346 239.0748391 -235.42716012 239.12437708 -249.75181961 239.15543652 C-256.67932955 239.17085862 -263.60673613 239.19185815 -270.53417969 239.22631836 C-277.22558759 239.25958835 -283.91686619 239.27687791 -290.60836029 239.28463173 C-293.15509475 239.29015409 -295.70182368 239.3009377 -298.24851227 239.31719017 C-301.82888742 239.3391207 -305.40882579 239.34196036 -308.98925781 239.34057617 C-310.03080017 239.351362 -311.07234253 239.36214783 -312.14544678 239.3732605 C-329.62839178 239.30061889 -345.09042553 232.22643666 -357.34375 219.91015625 C-369.98312431 206.06260645 -375.63585924 188.79023789 -374.9375 170.125 C-373.13448621 151.65965187 -364.82132241 136.69662169 -351.0703125 124.25390625 C-335.93749869 112.16649273 -319.60923157 110.46943057 -301 111 C-300.88914062 110.0925 -300.77828125 109.185 -300.6640625 108.25 C-299.3268002 101.70528097 -294.15284824 96.43106898 -289.03125 92.3203125 C-280.47946 86.761649 -271.02984236 85.54588192 -261.1484375 87.58984375 C-252.97666474 90.08741374 -246.25823194 95.1337001 -241.48828125 102.2578125 C-239.90574938 105.26739943 -239 107.57792991 -239 111 C-172.34 111 -105.68 111 -37 111 C-36.67 109.02 -36.34 107.04 -36 105 C-32.3426932 98.22955315 -26.02006739 92.05470111 -19.1875 88.5625 C-17 88 -17 88 -14 88 C-14.33 81.73 -14.66 75.46 -15 69 C-16.52399414 68.35450195 -18.04798828 67.70900391 -19.61816406 67.04394531 C-25.27290054 64.64582549 -30.92214656 62.23500374 -36.56982422 59.8203125 C-39.01422862 58.77601426 -41.46083754 57.73741803 -43.90869141 56.70117188 C-47.42744156 55.21087769 -50.94069894 53.70825305 -54.453125 52.203125 C-56.0955014 51.512258 -56.0955014 51.512258 -57.77105713 50.80743408 C-58.79181335 50.36727966 -59.81256958 49.92712524 -60.86425781 49.47363281 C-61.76138489 49.09168762 -62.65851196 48.70974243 -63.58282471 48.31622314 C-67.07486019 46.41470697 -69.46637723 44.35184434 -70.9375 40.625 C-71.02364202 37.00703511 -69.85357285 35.08797034 -68 32 C-65.60595703 30.13232422 -65.60595703 30.13232422 -62.7578125 28.5546875 C-61.70150635 27.95841553 -60.6452002 27.36214355 -59.55688477 26.74780273 C-58.42436279 26.12977783 -57.29184082 25.51175293 -56.125 24.875 C-54.95084899 24.21912459 -53.77759845 23.56163472 -52.60522461 22.90258789 C-50.22423725 21.56652993 -47.83891911 20.23877122 -45.44970703 18.91748047 C-41.35128577 16.63941956 -37.28501082 14.3088125 -33.22192383 11.96850586 C-29.15757415 9.6286971 -25.08013811 7.31214017 -21 5 C-20.37448242 4.64518555 -19.74896484 4.29037109 -19.10449219 3.92480469 C-6.87034179 -2.98710513 -6.87034179 -2.98710513 0 0 Z M-21.375 24.9921875 C-22.44234375 25.61480469 -23.5096875 26.23742187 -24.609375 26.87890625 C-25.72828125 27.53761719 -26.8471875 28.19632813 -28 28.875 C-29.11890625 29.52597656 -30.2378125 30.17695312 -31.390625 30.84765625 C-37.02782818 33.98010866 -37.02782818 33.98010866 -42 38 C-28.59039041 45.91805718 -28.59039041 45.91805718 -14 50 C-14 40.76 -14 31.52 -14 22 C-16.99299074 22 -18.80323985 23.4898847 -21.375 24.9921875 Z M-283.375 110.625 C-285.57907893 115.20270239 -285.7971639 119.00552411 -285 124 C-282.67031069 128.83858548 -279.83858548 131.67031069 -275 134 C-270.00552411 134.7971639 -266.20270239 134.57907893 -261.625 132.375 C-258.04092287 129.13226355 -255.40464759 126.53524104 -254.6171875 121.6015625 C-254.36116081 115.91777006 -255.06373068 112.35061345 -259 108 C-263.35061345 104.06373068 -266.91777006 103.36116081 -272.6015625 103.6171875 C-277.53524104 104.40464759 -280.13226355 107.04092287 -283.375 110.625 Z M-19.375 110.625 C-21.57907893 115.20270239 -21.7971639 119.00552411 -21 124 C-18.67031069 128.83858548 -15.83858548 131.67031069 -11 134 C-6.00552411 134.7971639 -2.20270239 134.57907893 2.375 132.375 C5.95907713 129.13226355 8.59535241 126.53524104 9.3828125 121.6015625 C9.63883919 115.91777006 8.93626932 112.35061345 5 108 C0.64938655 104.06373068 -2.91777006 103.36116081 -8.6015625 103.6171875 C-13.53524104 104.40464759 -16.13226355 107.04092287 -19.375 110.625 Z M-187.375 222.625 C-189.57907893 227.20270239 -189.7971639 231.00552411 -189 236 C-186.67031069 240.83858548 -183.83858548 243.67031069 -179 246 C-174.00552411 246.7971639 -170.20270239 246.57907893 -165.625 244.375 C-162.04092287 241.13226355 -159.40464759 238.53524104 -158.6171875 233.6015625 C-158.36116081 227.91777006 -159.06373068 224.35061345 -163 220 C-167.35061345 216.06373068 -170.91777006 215.36116081 -176.6015625 215.6171875 C-181.53524104 216.40464759 -184.13226355 219.04092287 -187.375 222.625 Z M-91.375 334.625 C-93.57907893 339.20270239 -93.7971639 343.00552411 -93 348 C-90.67031069 352.83858548 -87.83858548 355.67031069 -83 358 C-78.00552411 358.7971639 -74.20270239 358.57907893 -69.625 356.375 C-66.04092287 353.13226355 -63.40464759 350.53524104 -62.6171875 345.6015625 C-62.36116081 339.91777006 -63.06373068 336.35061345 -67 332 C-71.35061345 328.06373068 -74.91777006 327.36116081 -80.6015625 327.6171875 C-85.53524104 328.40464759 -88.13226355 331.04092287 -91.375 334.625 Z " fill="#ff851b" transform="translate(430,57)"/>
<path d="M0 0 C0.95390625 -0.0038269 1.9078125 -0.00765381 2.890625 -0.01159668 C4.90105245 -0.01431036 6.91151553 -0.00698737 8.921875 0.00976562 C11.99038787 0.03118291 15.05655952 0.00994534 18.125 -0.015625 C20.08333848 -0.01298163 22.0416755 -0.00785645 24 0 C25.36898437 -0.01214539 25.36898437 -0.01214539 26.765625 -0.02453613 C33.70134087 0.07702071 37.40462547 1.93587547 42.375 6.90625 C44.93295624 12.61246007 44.30372738 18.37233376 44 24.53125 C45.03898437 24.48484375 46.07796875 24.4384375 47.1484375 24.390625 C58.15253784 24.04447609 67.05597486 24.97091048 75.46875 32.828125 C81.24584108 39.25366508 84.23000089 46.2472829 84.29052734 54.92871094 C84.30328705 56.17730896 84.31604675 57.42590698 84.32919312 58.71234131 C84.33225175 60.06343428 84.33447899 61.41452935 84.3359375 62.765625 C84.34237451 64.16799044 84.34910353 65.57035457 84.35610962 66.97271729 C84.36805576 69.90794991 84.37179335 72.84306511 84.37060547 75.77832031 C84.37040275 79.51490121 84.39766732 83.25071755 84.43214989 86.98711777 C84.45453906 89.88359949 84.45843933 92.77990093 84.45738602 95.67646027 C84.45972539 97.05260087 84.46845373 98.42874774 84.48405075 99.80480194 C84.59542282 110.64791372 83.33284738 119.8308023 75.703125 128 C68.21447536 134.73291435 60.54110905 136.83218124 50.66503906 136.82177734 C49.74388306 136.82849457 48.82272705 136.83521179 47.87365723 136.84213257 C44.83759113 136.86108232 41.80174651 136.86503546 38.765625 136.8671875 C36.64581208 136.87361826 34.52600004 136.88034683 32.40618896 136.88735962 C27.96445662 136.89932537 23.52280201 136.90304123 19.08105469 136.90185547 C13.4074888 136.90165249 7.734425 136.92893601 2.06097794 136.96339989 C-2.31783304 136.98571046 -6.69652407 136.98969171 -11.07538605 136.98863602 C-13.16603574 136.99098642 -15.25668902 136.99977815 -17.34728241 137.01530075 C-20.28102578 137.03504172 -23.21369788 137.0290905 -26.14746094 137.01708984 C-26.99975281 137.02832886 -27.85204468 137.03956787 -28.73016357 137.05114746 C-37.34121657 136.96227583 -45.12706106 134.15727317 -51.46875 128.234375 C-57.24584108 121.80883492 -60.23000089 114.8152171 -60.29052734 106.13378906 C-60.30328705 104.88519104 -60.31604675 103.63659302 -60.32919312 102.35015869 C-60.33225175 100.99906572 -60.33447899 99.64797065 -60.3359375 98.296875 C-60.34237451 96.89450956 -60.34910353 95.49214543 -60.35610962 94.08978271 C-60.36805576 91.15455009 -60.37179335 88.21943489 -60.37060547 85.28417969 C-60.37040275 81.54759879 -60.39766732 77.81178245 -60.43214989 74.07538223 C-60.45453906 71.17890051 -60.45843933 68.28259907 -60.45738602 65.38603973 C-60.45972539 64.00989913 -60.46845373 62.63375226 -60.48405075 61.25769806 C-60.59542282 50.41458628 -59.33284738 41.2316977 -51.703125 33.0625 C-44.54012795 26.62237421 -37.13265169 24.18274282 -27.625 24.40625 C-26.52091797 24.41978516 -26.52091797 24.41978516 -25.39453125 24.43359375 C-23.5962112 24.45694856 -21.79806089 24.49281164 -20 24.53125 C-20.04640625 23.59023438 -20.0928125 22.64921875 -20.140625 21.6796875 C-20.43560209 11.50297775 -20.43560209 11.50297775 -18.375 6.90625 C-12.44626822 0.97751822 -8.08761738 -0.0717519 0 0 Z M-4 16.53125 C-4 19.17125 -4 21.81125 -4 24.53125 C6.56 24.53125 17.12 24.53125 28 24.53125 C28 21.89125 28 19.25125 28 16.53125 C17.44 16.53125 6.88 16.53125 -4 16.53125 Z M-38.59686279 44.9833374 C-42.70039692 49.69305717 -43.35587609 52.93647164 -43.27734375 58.9921875 C-42.86623556 62.75585402 -41.5171364 64.74915187 -39 67.53125 C-32.91236094 72.32364671 -28.09681256 72.65912575 -20.51171875 72.62890625 C-19.4569207 72.62678383 -19.4569207 72.62678383 -18.3808136 72.62461853 C-16.14966456 72.61905109 -13.91861836 72.60650475 -11.6875 72.59375 C-10.16862125 72.58873079 -8.64974091 72.58416862 -7.13085938 72.58007812 C-3.42053988 72.56909236 0.28972001 72.55185034 4 72.53125 C4.28875 71.561875 4.5775 70.5925 4.875 69.59375 C6 66.53125 6 66.53125 8 65.53125 C15.28323699 65.06882225 15.28323699 65.06882225 17.9375 66.78125 C19.09457711 68.68702406 19.50456757 70.37098606 20 72.53125 C24.3924631 72.60607575 28.78457672 72.66016683 33.17749023 72.69604492 C34.66811598 72.71102042 36.15869851 72.73140819 37.64916992 72.75756836 C50.97407271 73.46909198 50.97407271 73.46909198 62.60327148 68.07861328 C66.6961669 63.36115962 67.35589621 60.12757986 67.27734375 54.0703125 C66.86623556 50.30664598 65.5171364 48.31334813 63 45.53125 C56.91174766 40.7383705 51.76120165 40.38187399 44.23144531 40.37011719 C43.0816066 40.36266983 43.0816066 40.36266983 41.90853882 40.35507202 C39.38172494 40.34051144 36.85497387 40.3336582 34.328125 40.328125 C32.56321207 40.32236802 30.79829915 40.31661036 29.03338623 40.31085205 C25.33475454 40.30035906 21.63614447 40.29450544 17.9375 40.29101562 C13.21561864 40.28553804 8.49402665 40.26151856 3.77223587 40.23304367 C0.12607 40.21434938 -3.52002714 40.20920806 -7.16623688 40.20767975 C-8.90603465 40.20466742 -10.64583161 40.19668727 -12.38558197 40.18349457 C-26.36640156 39.46012502 -26.36640156 39.46012502 -38.59686279 44.9833374 Z M-44 84.53125 C-44.08845016 87.67690046 -44.14086835 90.82222375 -44.1875 93.96875 C-44.21263672 94.84724609 -44.23777344 95.72574219 -44.26367188 96.63085938 C-44.33473817 103.05051506 -43.90126966 109.91202021 -39.72436523 115.12255859 C-34.11489603 120.24436903 -27.27318971 120.83131599 -20.00439453 120.8059082 C-18.85411774 120.8135746 -18.85411774 120.8135746 -17.68060303 120.82139587 C-15.16459177 120.83520991 -12.648857 120.83434122 -10.1328125 120.83203125 C-8.37075704 120.83592287 -6.60870251 120.84025849 -4.84664917 120.84501648 C-1.15994216 120.85246124 2.52666905 120.85220023 6.21337891 120.84692383 C10.91953517 120.84113357 15.62529731 120.85805791 20.33138847 120.8812685 C23.96898664 120.89605695 27.60649102 120.89687057 31.24411392 120.89375877 C32.97832138 120.89426949 34.71253443 120.89945989 36.44671249 120.90957069 C50.26361679 121.51632942 50.26361679 121.51632942 62.56173706 116.25630188 C68.36074169 110.03878255 68.28251634 102.56044193 68.125 94.59375 C68.11597656 93.71912109 68.10695313 92.84449219 68.09765625 91.94335938 C68.0742957 89.80586936 68.03843247 87.66852214 68 85.53125 C66.865625 85.840625 65.73125 86.15 64.5625 86.46875 C54.77122761 88.87054348 44.95233817 88.65433514 34.9375 88.59375 C33.48502759 88.58872414 32.03255349 88.58416316 30.58007812 88.58007812 C27.05334985 88.56916042 23.52668598 88.55195586 20 88.53125 C19.566875 89.9853125 19.566875 89.9853125 19.125 91.46875 C18 94.53125 18 94.53125 16 95.53125 C8.71676301 95.99367775 8.71676301 95.99367775 6.0625 94.28125 C4.90542289 92.37547594 4.49543243 90.69151394 4 88.53125 C2.68563965 88.54696045 2.68563965 88.54696045 1.34472656 88.56298828 C-1.96535981 88.59745926 -5.27525025 88.62233521 -8.58544922 88.64111328 C-10.00702968 88.6510544 -11.42859036 88.66461208 -12.85009766 88.68212891 C-23.49954762 88.80989224 -34.0520475 88.7975376 -44 84.53125 Z " fill="#ff851b" transform="translate(116,319.46875)"/>
</svg>