<svg xmlns="http://www.w3.org/2000/svg" viewBox="0 0 245.85 313.91"><defs><style>.cls-1{fill:none;}.cls-2{fill:#ff851b;}</style></defs><g id="Layer_2" data-name="Layer 2"><g id="Layer_1_copy_2" data-name="Layer 1 copy 2"><path class="cls-1" d="M32.46,169.5c6.71.05,13.42,0,20.13,0q42.54,0,85.09,0c4.93,0,8.78-1.7,10.93-6.25,3.41-7.22-1.89-14.94-10.3-15-17.53,0-35.07,0-52.61,0-17.77,0-35.54,0-53.32,0-6.58,0-11.33,4.42-11.41,10.45S25.71,169.46,32.46,169.5Z"/><path class="cls-1" d="M32.94,127.09H137.46c7.38,0,12.27-4.35,12.16-10.77s-4.9-10.43-12.14-10.43H85.58q-26.31,0-52.61,0c-7.15,0-12,4.3-12,10.58S25.82,127.09,32.94,127.09Z"/><path class="cls-1" d="M149.62,201.47c.09-6.05-4.64-10.72-11.12-10.73q-53.15,0-106.28.06a13.59,13.59,0,0,0-6.33,1.73,10.13,10.13,0,0,0-4.6,11.27,10.55,10.55,0,0,0,10.63,8.11c17.78.05,35.55,0,53.32,0s35.55,0,53.32,0C144.89,211.89,149.54,207.4,149.62,201.47Z"/><path class="cls-1" d="M32.52,84.67c6.94,0,13.88,0,20.82,0s13.87,0,20.81,0S86.06,80.25,86,74,81.15,63.48,74.27,63.47q-20.82,0-41.63,0C25.81,63.48,21,67.86,21,74S25.74,84.63,32.52,84.67Z"/><path class="cls-2" d="M191.86,205.88h.2V84.67h-4.41q-33.93,0-67.86,0c-8.52,0-12.57-4-12.57-12.51q0-34.11,0-68.21V0H26.76A26.76,26.76,0,0,0,0,26.76v248.8H140.16a54.89,54.89,0,0,1-2.29-15.11A54.34,54.34,0,0,1,191.86,205.88ZM32.64,63.47q20.82,0,41.63,0C81.15,63.48,85.92,67.79,86,74S81.23,84.64,74.15,84.67s-13.88,0-20.81,0-13.88,0-20.82,0C25.74,84.63,20.94,80.16,21,74S25.81,63.48,32.64,63.47ZM33,105.89q26.3,0,52.61,0h51.9c7.24,0,12,4.15,12.14,10.43s-4.78,10.77-12.16,10.77H32.94c-7.12,0-12-4.34-12-10.62S25.82,105.89,33,105.89Zm-.59,42.43c17.78,0,35.55,0,53.32,0,17.54,0,35.08,0,52.61,0,8.41,0,13.71,7.75,10.3,15-2.15,4.55-6,6.26-10.93,6.25q-42.54-.07-85.09,0c-6.71,0-13.42,0-20.13,0S20.89,164.93,21,158.77,25.8,148.33,32.38,148.32Zm-.46,63.59a10.55,10.55,0,0,1-10.63-8.11,10.13,10.13,0,0,1,4.6-11.27,13.59,13.59,0,0,1,6.33-1.73q53.13-.15,106.28-.06c6.48,0,11.21,4.68,11.12,10.73s-4.73,10.42-11.06,10.44c-17.77.06-35.55,0-53.32,0S49.7,212,31.92,211.91Z"/><path class="cls-2" d="M197.06,216.29h-.18a48.92,48.92,0,0,0-48.61,49.14,48.95,48.95,0,0,0,48.87,48.49,48.81,48.81,0,0,0-.08-97.62Zm26.28,37.51a17.3,17.3,0,0,1-2.09,2.36q-13.29,13.3-26.59,26.59c-5.42,5.41-10.44,4.75-14.27-1.87-.36-.62-.72-1.24-1.07-1.86q-3.9-6.72-7.77-13.45c-2.83-4.91-2.39-8.63,1.23-10.68s6.88-.54,9.8,4.52q2.92,5.07,5.86,10.11c.09.17.29.29.82.79l7.8-7.8c4.94-4.95,9.9-9.92,14.83-14.84a21.62,21.62,0,0,1,2.8-2.53,6.22,6.22,0,0,1,8.65,8.66Z"/><path class="cls-2" d="M128.62,7.38V63.31h55.91Z"/></g></g></svg>