<svg xmlns="http://www.w3.org/2000/svg" viewBox="0 0 324.45 313.31"><defs><style>.cls-1{fill:#ff851b;}.cls-2{fill:none;}</style></defs><g id="Layer_2" data-name="Layer 2"><g id="Layer_1_copy_2" data-name="Layer 1 copy 2"><path class="cls-1" d="M131.88,138.56v17.17H114.26V138.56Z"/><path class="cls-1" d="M58,138.56v17.17H40.38V138.56Z"/><path class="cls-1" d="M246.1,113.45c0-17.54.06-35.08-.17-52.62-.23-17.26-10.58-30.67-26.49-34.6-5.95-1.48-12.36-1.27-18.57-1.53-5.35-.23-10.71-.05-15.77-.05-.36-.38-.48-.45-.48-.52-.05-4,0-8.08-.14-12.11C184.32,6.11,181,1.73,175.83.48c-8.69-2.11-15.44,2.91-15.78,11.85-.15,4,0,8,0,12.13H85.94c0-4,0-7.82,0-11.64C85.86,4.84,81.38.15,73.85.11S61.72,4.78,61.65,12.7c0,3.83,0,7.66,0,12-8.5,0-16.56,0-24.63,0C15.78,24.79,0,40.54,0,61.78q0,85.83,0,171.65a39.72,39.72,0,0,0,.83,8.29c3.79,17.71,18.06,29,36.86,29q61.44.07,122.89,0V113.45ZM24.5,62.63c0-9.12,4.36-13.43,13.44-13.46,6.83,0,13.66,0,20.48,0h3.22c0,4.47,0,8.4,0,12.33.12,7.54,4.67,12.12,12,12.16,7.53,0,12.14-4.54,12.26-12.21,0-3.93,0-7.85,0-12H160c0,3.2-.07,6.43,0,9.65a28.59,28.59,0,0,0,.66,6.56c1.59,5.81,7.06,8.81,13.92,7.91,5.66-.75,9.61-5.21,9.83-11.38.15-4.21,0-8.42,0-13h13.17c4.23,0,8.47-.09,12.69.08,6.32.27,11,4.73,11.14,11,.2,12.59.06,25.18.06,38H24.68c-.06-.9-.18-1.82-.18-2.74C24.49,84.55,24.47,73.59,24.5,62.63Zm123.06,60.65V171h-49V123.28Zm-73.86,0V171h-49V123.23Zm0,122.79c-.93.07-1.76.18-2.59.18q-16.72,0-33.45,0c-8.68,0-13.16-4.43-13.2-13.12-.06-11.53,0-23.07,0-34.6,0-.85.09-1.7.15-2.72h49.1Zm73.86.06H98.55v-50.3h49.06Z"/><path class="cls-1" d="M288.37,217.46a47.8,47.8,0,0,0-12.71-1.77h-.18c-1.57,0-3.12.1-4.66.25A47.94,47.94,0,0,0,258,219a48.64,48.64,0,0,0-29,59.38c0,.14.1.27.14.4a48.07,48.07,0,0,0,2.18,5.69,48.74,48.74,0,1,0,57.12-67Zm13.57,35.74a17.3,17.3,0,0,1-2.09,2.36l-13.2,13.2q-6.69,6.71-13.38,13.39a15.58,15.58,0,0,1-3,2.36c-2.7,1.6-5.25,1.6-7.55,0a12.76,12.76,0,0,1-3.69-4.23c-.36-.62-.72-1.24-1.07-1.86l-.12-.21a2.75,2.75,0,0,1-.17-.29q-3.75-6.46-7.48-12.95c-2.83-4.91-2.39-8.63,1.23-10.68s6.88-.54,9.8,4.52q2.93,5.07,5.86,10.11a6.24,6.24,0,0,0,.82.79l.56-.56,7.24-7.24,4.47-4.48,8.29-8.29,2.07-2.07a21.55,21.55,0,0,1,2.8-2.53,6.22,6.22,0,0,1,8.65,8.66Z"/><path class="cls-2" d="M250.35,208.55c.83-.32,1.72-.53,2.58-.81a5.87,5.87,0,0,0-5.56-3.53c-9.23,0-18.46,0-27.7,0s-18.71,0-28.06,0c-3.47,0-6,2.33-6,5.5s2.49,5.63,6.05,5.65,7.06,0,10.59,0H238.1A55,55,0,0,1,245,211,6.42,6.42,0,0,0,250.35,208.55Z"/><path class="cls-2" d="M226.88,226.55q-17.69,0-35.36,0a7.11,7.11,0,0,0-3.33.91,5.32,5.32,0,0,0-2.42,5.93,5.55,5.55,0,0,0,5.6,4.27c9.35,0,18.71,0,28.06,0h.93c.3-.69.54-1.42.86-2.1A53.76,53.76,0,0,1,226.88,226.55Z"/><path class="cls-2" d="M191.68,170.7c3.65,0,7.3,0,11,0s7.3,0,11,0,6.28-2.32,6.24-5.64-2.55-5.51-6.17-5.52H191.75c-3.6,0-6.13,2.31-6.15,5.55S188.11,170.68,191.68,170.7Z"/><path class="cls-2" d="M191.9,193h55c3.88,0,6.46-2.29,6.4-5.67s-2.58-5.49-6.39-5.49h-55c-3.76,0-6.3,2.27-6.31,5.57S188.15,193,191.9,193Z"/><path class="cls-1" d="M220.36,237.69h-.93c-9.35,0-18.71,0-28.06,0a5.55,5.55,0,0,1-5.6-4.27,5.32,5.32,0,0,1,2.42-5.93,7.11,7.11,0,0,1,3.33-.91q17.68-.06,35.36,0c.81-1.08,1.57-2.2,2.46-3.22a55.17,55.17,0,0,1,8.76-8H202.24c-3.53,0-7.06,0-10.59,0s-6.09-2.41-6.05-5.65,2.54-5.5,6-5.5q14,0,28.06,0c9.24,0,18.47,0,27.7,0a5.87,5.87,0,0,1,5.56,3.53,52.51,52.51,0,0,1,11.44-2.58c1.69-.16,3.4-.27,5.13-.27h.19a49.19,49.19,0,0,1,6,.43V170.7h-2.32q-17.86,0-35.72,0c-4.49,0-6.62-2.12-6.62-6.58v-38H188.65a14.09,14.09,0,0,0-14.09,14.09v131h43.12a50.57,50.57,0,0,1,2.68-33.5Zm-28.61-78.15h21.91c3.62,0,6.13,2.28,6.17,5.52s-2.51,5.63-6.24,5.64-7.3,0-11,0-7.31,0-11,0-6.1-2.37-6.08-5.61S188.15,159.55,191.75,159.54Zm.16,22.33h55c3.81,0,6.34,2.19,6.39,5.49s-2.52,5.67-6.4,5.67h-55c-3.75,0-6.3-2.28-6.3-5.59S188.15,181.88,191.91,181.87Z"/><path class="cls-1" d="M242.26,130v29.44H271.7Z"/></g></g></svg>